{
  "accessors": [
    {
      "bufferView": 2,
      "componentType": 5126,
      "count": 65532,
      "max": [
        48.684120178222656,
        50.45787811279297,
        12.939299583435059
      ],
      "min": [
        -46.30519104003906,
        -51.8856086730957,
        -29.88673973083496
      ],
      "type": "VEC3"
    },
    {
      "bufferView": 2,
      "byteOffset": 786384,
      "componentType": 5126,
      "count": 65532,
      "max": [
        0.9998157024383545,
        0.999861478805542,
        0.9999958872795105
      ],
      "min": [
        -0.9999491572380066,
        -0.9998999238014221,
        -0.9999404549598694
      ],
      "type": "VEC3"
    },
    {
      "bufferView": 1,
      "componentType": 5126,
      "count": 65532,
      "max": [
        0.9996299743652344,
        0.9952399730682373
      ],
      "min": [
        0.0035600000992417336,
        0.0003699999942909926
      ],
      "type": "VEC2"
    },
    {
      "bufferView": 0,
      "componentType": 5125,
      "count": 201456,
      "type": "SCALAR"
    },
    {
      "bufferView": 2,
      "byteOffset": 1572768,
      "componentType": 5126,
      "count": 65532,
      "max": [
        50.42177963256836,
        52.35184097290039,
        4.512020111083984
      ],
      "min": [
        -43.29188919067383,
        -49.512290954589844,
        -32.74795913696289
      ],
      "type": "VEC3"
    },
    {
      "bufferView": 2,
      "byteOffset": 2359152,
      "componentType": 5126,
      "count": 65532,
      "max": [
        0.9998226761817932,
        0.999925434589386,
        0.9998820424079895
      ],
      "min": [
        -0.9999547600746155,
        -0.9996726512908936,
        -0.99993896484375
      ],
      "type": "VEC3"
    },
    {
      "bufferView": 1,
      "byteOffset": 524256,
      "componentType": 5126,
      "count": 65532,
      "max": [
        0.9996299743652344,
        0.995140016078949
      ],
      "min": [
        0.0037700000684708357,
        0.0003699999942909926
      ],
      "type": "VEC2"
    },
    {
      "bufferView": 0,
      "byteOffset": 805824,
      "componentType": 5125,
      "count": 127701,
      "type": "SCALAR"
    },
    {
      "bufferView": 2,
      "byteOffset": 3145536,
      "componentType": 5126,
      "count": 65532,
      "max": [
        50.36880111694336,
        52.35184097290039,
        -0.5682799816131592
      ],
      "min": [
        -50.42177963256836,
        -52.35184097290039,
        -30.646879196166992
      ],
      "type": "VEC3"
    },
    {
      "bufferView": 2,
      "byteOffset": 3931920,
      "componentType": 5126,
      "count": 65532,
      "max": [
        0.9982390999794006,
        0.9998964071273804,
        0.9999892115592957
      ],
      "min": [
        -0.9999424815177917,
        -0.9999784827232361,
        -0.9999869465827942
      ],
      "type": "VEC3"
    },
    {
      "bufferView": 1,
      "byteOffset": 1048512,
      "componentType": 5126,
      "count": 65532,
      "max": [
        0.9993900060653687,
        0.9951099753379822
      ],
      "min": [
        0.003370000049471855,
        0.0006099999882280827
      ],
      "type": "VEC2"
    },
    {
      "bufferView": 0,
      "byteOffset": 1316628,
      "componentType": 5125,
      "count": 138069,
      "type": "SCALAR"
    },
    {
      "bufferView": 2,
      "byteOffset": 4718304,
      "componentType": 5126,
      "count": 65532,
      "max": [
        43.22637939453125,
        38.08879852294922,
        -19.12537956237793
      ],
      "min": [
        -50.219058990478516,
        -52.35184097290039,
        -37.499778747558594
      ],
      "type": "VEC3"
    },
    {
      "bufferView": 2,
      "byteOffset": 5504688,
      "componentType": 5126,
      "count": 65532,
      "max": [
        0.998558759689331,
        0.999247133731842,
        0.9996942281723022
      ],
      "min": [
        -0.9998225569725037,
        -0.9985088109970093,
        -0.9999988079071045
      ],
      "type": "VEC3"
    },
    {
      "bufferView": 1,
      "byteOffset": 1572768,
      "componentType": 5126,
      "count": 65532,
      "max": [
        0.9996299743652344,
        0.9945099949836731
      ],
      "min": [
        0.0040799998678267,
        0.0003699999942909926
      ],
      "type": "VEC2"
    },
    {
      "bufferView": 0,
      "byteOffset": 1868904,
      "componentType": 5125,
      "count": 81453,
      "type": "SCALAR"
    },
    {
      "bufferView": 2,
      "byteOffset": 6291072,
      "componentType": 5126,
      "count": 65533,
      "max": [
        14.692009925842285,
        37.69620132446289,
        -24.119070053100586
      ],
      "min": [
        -50.42177963256836,
        -52.35184097290039,
        -48.52288818359375
      ],
      "type": "VEC3"
    },
    {
      "bufferView": 2,
      "byteOffset": 7077468,
      "componentType": 5126,
      "count": 65533,
      "max": [
        0.9996214509010315,
        0.9997498989105225,
        0.9993139505386353
      ],
      "min": [
        -0.9999647736549377,
        -0.9999194741249084,
        -0.9999988079071045
      ],
      "type": "VEC3"
    },
    {
      "bufferView": 1,
      "byteOffset": 2097024,
      "componentType": 5126,
      "count": 65533,
      "max": [
        0.9996299743652344,
        0.998170018196106
      ],
      "min": [
        0.003590000094845891,
        0.0003699999942909926
      ],
      "type": "VEC2"
    },
    {
      "bufferView": 0,
      "byteOffset": 2194716,
      "componentType": 5125,
      "count": 83076,
      "type": "SCALAR"
    },
    {
      "bufferView": 2,
      "byteOffset": 7863864,
      "componentType": 5126,
      "count": 65534,
      "max": [
        9.492730140686035,
        37.76129913330078,
        -26.377399444580078
      ],
      "min": [
        -47.29309844970703,
        -48.985530853271484,
        -73.70332336425781
      ],
      "type": "VEC3"
    },
    {
      "bufferView": 2,
      "byteOffset": 8650272,
      "componentType": 5126,
      "count": 65534,
      "max": [
        0.9999826550483704,
        0.99896639585495,
        0.9992714524269104
      ],
      "min": [
        -0.9998646378517151,
        -0.9970635175704956,
        -0.9999756217002869
      ],
      "type": "VEC3"
    },
    {
      "bufferView": 1,
      "byteOffset": 2621288,
      "componentType": 5126,
      "count": 65534,
      "max": [
        0.9996299743652344,
        0.9871799945831299
      ],
      "min": [
        0.003719999920576811,
        0.0003699999942909926
      ],
      "type": "VEC2"
    },
    {
      "bufferView": 0,
      "byteOffset": 2527020,
      "componentType": 5125,
      "count": 74598,
      "type": "SCALAR"
    },
    {
      "bufferView": 2,
      "byteOffset": 9436680,
      "componentType": 5126,
      "count": 65532,
      "max": [
        43.95940017700195,
        52.29985809326172,
        -9.10634994506836
      ],
      "min": [
        -50.35982894897461,
        -52.33317947387695,
        -30.403579711914063
      ],
      "type": "VEC3"
    },
    {
      "bufferView": 2,
      "byteOffset": 10223064,
      "componentType": 5126,
      "count": 65532,
      "max": [
        0.9989711046218872,
        0.9999010562896729,
        0.9999495148658752
      ],
      "min": [
        -0.9997899532318115,
        -0.9996076822280884,
        -0.9999869465827942
      ],
      "type": "VEC3"
    },
    {
      "bufferView": 1,
      "byteOffset": 3145560,
      "componentType": 5126,
      "count": 65532,
      "max": [
        0.9996299743652344,
        0.9996299743652344
      ],
      "min": [
        0.0034099998883903027,
        0.0006099999882280827
      ],
      "type": "VEC2"
    },
    {
      "bufferView": 0,
      "byteOffset": 2825412,
      "componentType": 5125,
      "count": 75672,
      "type": "SCALAR"
    },
    {
      "bufferView": 2,
      "byteOffset": 11009448,
      "componentType": 5126,
      "count": 65532,
      "max": [
        44.08879852294922,
        52.219390869140625,
        -3.2045400142669678
      ],
      "min": [
        -46.68413162231445,
        -51.5483283996582,
        -17.34358024597168
      ],
      "type": "VEC3"
    },
    {
      "bufferView": 2,
      "byteOffset": 11795832,
      "componentType": 5126,
      "count": 65532,
      "max": [
        0.9996657967567444,
        0.9999610185623169,
        0.9999958872795105
      ],
      "min": [
        -0.9998361468315125,
        -0.9999331831932068,
        -0.9992852807044983
      ],
      "type": "VEC3"
    },
    {
      "bufferView": 1,
      "byteOffset": 3669816,
      "componentType": 5126,
      "count": 65532,
      "max": [
        0.9993900060653687,
        0.9825299978256226
      ],
      "min": [
        0.006430000066757202,
        0.0006099999882280827
      ],
      "type": "VEC2"
    },
    {
      "bufferView": 0,
      "byteOffset": 3128100,
      "componentType": 5125,
      "count": 98403,
      "type": "SCALAR"
    },
    {
      "bufferView": 2,
      "byteOffset": 12582216,
      "componentType": 5126,
      "count": 65533,
      "max": [
        46.464290618896484,
        51.919288635253906,
        -2.25777006149292
      ],
      "min": [
        -41.017879486083984,
        -47.10237121582031,
        -13.11847972869873
      ],
      "type": "VEC3"
    },
    {
      "bufferView": 2,
      "byteOffset": 13368612,
      "componentType": 5126,
      "count": 65533,
      "max": [
        0.9994023442268372,
        0.9994925260543823,
        0.9999593496322632
      ],
      "min": [
        -0.9999424815177917,
        -0.9995370507240295,
        -0.999755859375
      ],
      "type": "VEC3"
    },
    {
      "bufferView": 1,
      "byteOffset": 4194072,
      "componentType": 5126,
      "count": 65533,
      "max": [
        0.9993900060653687,
        0.9950299859046936
      ],
      "min": [
        0.0034099998883903027,
        0.0008500000112690032
      ],
      "type": "VEC2"
    },
    {
      "bufferView": 0,
      "byteOffset": 3521712,
      "componentType": 5125,
      "count": 90267,
      "type": "SCALAR"
    },
    {
      "bufferView": 2,
      "byteOffset": 14155008,
      "componentType": 5126,
      "count": 39467,
      "max": [
        47.07732009887695,
        52.260841369628906,
        -1.721709966659546
      ],
      "min": [
        -36.9694709777832,
        -38.768428802490234,
        -7.977880001068115
      ],
      "type": "VEC3"
    },
    {
      "bufferView": 2,
      "byteOffset": 14628612,
      "componentType": 5126,
      "count": 39467,
      "max": [
        0.9996317625045776,
        0.999925434589386,
        0.9996800422668457
      ],
      "min": [
        -0.9998213648796082,
        -0.9993856549263,
        -0.998953640460968
      ],
      "type": "VEC3"
    },
    {
      "bufferView": 1,
      "byteOffset": 4718336,
      "componentType": 5126,
      "count": 39467,
      "max": [
        0.9996299743652344,
        0.995140016078949
      ],
      "min": [
        0.003379999892786145,
        0.003229999914765358
      ],
      "type": "VEC2"
    },
    {
      "bufferView": 0,
      "byteOffset": 3882780,
      "componentType": 5125,
      "count": 47421,
      "type": "SCALAR"
    }
  ],
  "asset": {
    "extras": {
      "author": "Qlone (https://sketchfab.com/Qlone)",
      "license": "CC-BY-ND-4.0 (http://creativecommons.org/licenses/by-nd/4.0/)",
      "source": "https://sketchfab.com/3d-models/flower-5efa23faea184ee2b65acc48c3a8daeb",
      "title": "Flower"
    },
    "generator": "Sketchfab-12.66.0",
    "version": "2.0"
  },
  "bufferViews": [
    {
      "buffer": 0,
      "byteLength": 4072464,
      "name": "floatBufferViews",
      "target": 34963
    },
    {
      "buffer": 0,
      "byteLength": 5034072,
      "byteOffset": 4072464,
      "byteStride": 8,
      "name": "floatBufferViews",
      "target": 34962
    },
    {
      "buffer": 0,
      "byteLength": 15102216,
      "byteOffset": 9106536,
      "byteStride": 12,
      "name": "floatBufferViews",
      "target": 34962
    }
  ],
  "buffers": [
    {
      "byteLength": 24208752,
      "uri": "scene.bin"
    }
  ],
  "extensionsUsed": [
    "KHR_materials_unlit"
  ],
  "images": [
    {
      "uri": "textures/material0_baseColor.jpeg"
    }
  ],
  "materials": [
    {
      "doubleSided": true,
      "emissiveTexture": {
        "index": 0
      },
      "extensions": {
        "KHR_materials_unlit": {}
      },
      "name": "material0",
      "pbrMetallicRoughness": {
        "baseColorTexture": {
          "index": 0
        },
        "metallicFactor": 0.0
      }
    }
  ],
  "meshes": [
    {
      "name": "Object_0",
      "primitives": [
        {
          "attributes": {
            "NORMAL": 1,
            "POSITION": 0,
            "TEXCOORD_0": 2
          },
          "indices": 3,
          "material": 0,
          "mode": 4
        }
      ]
    },
    {
      "name": "Object_1",
      "primitives": [
        {
          "attributes": {
            "NORMAL": 5,
            "POSITION": 4,
            "TEXCOORD_0": 6
          },
          "indices": 7,
          "material": 0,
          "mode": 4
        }
      ]
    },
    {
      "name": "Object_2",
      "primitives": [
        {
          "attributes": {
            "NORMAL": 9,
            "POSITION": 8,
            "TEXCOORD_0": 10
          },
          "indices": 11,
          "material": 0,
          "mode": 4
        }
      ]
    },
    {
      "name": "Object_3",
      "primitives": [
        {
          "attributes": {
            "NORMAL": 13,
            "POSITION": 12,
            "TEXCOORD_0": 14
          },
          "indices": 15,
          "material": 0,
          "mode": 4
        }
      ]
    },
    {
      "name": "Object_4",
      "primitives": [
        {
          "attributes": {
            "NORMAL": 17,
            "POSITION": 16,
            "TEXCOORD_0": 18
          },
          "indices": 19,
          "material": 0,
          "mode": 4
        }
      ]
    },
    {
      "name": "Object_5",
      "primitives": [
        {
          "attributes": {
            "NORMAL": 21,
            "POSITION": 20,
            "TEXCOORD_0": 22
          },
          "indices": 23,
          "material": 0,
          "mode": 4
        }
      ]
    },
    {
      "name": "Object_6",
      "primitives": [
        {
          "attributes": {
            "NORMAL": 25,
            "POSITION": 24,
            "TEXCOORD_0": 26
          },
          "indices": 27,
          "material": 0,
          "mode": 4
        }
      ]
    },
    {
      "name": "Object_7",
      "primitives": [
        {
          "attributes": {
            "NORMAL": 29,
            "POSITION": 28,
            "TEXCOORD_0": 30
          },
          "indices": 31,
          "material": 0,
          "mode": 4
        }
      ]
    },
    {
      "name": "Object_8",
      "primitives": [
        {
          "attributes": {
            "NORMAL": 33,
            "POSITION": 32,
            "TEXCOORD_0": 34
          },
          "indices": 35,
          "material": 0,
          "mode": 4
        }
      ]
    },
    {
      "name": "Object_9",
      "primitives": [
        {
          "attributes": {
            "NORMAL": 37,
            "POSITION": 36,
            "TEXCOORD_0": 38
          },
          "indices": 39,
          "material": 0,
          "mode": 4
        }
      ]
    }
  ],
  "nodes": [
    {
      "children": [
        1
      ],
      "matrix": [
        1.0,
        0.0,
        0.0,
        0.0,
        0.0,
        2.220446049250313e-16,
        -1.0,
        0.0,
        0.0,
        1.0,
        2.220446049250313e-16,
        0.0,
        0.0,
        0.0,
        0.0,
        1.0
      ],
      "name": "Sketchfab_model"
    },
    {
      "children": [
        2,
        3,
        4,
        5,
        6,
        7,
        8,
        9,
        10,
        11
      ],
      "name": "model_Flower_20210207_160854116.obj.cleaner.materialmerger.gles"
    },
    {
      "mesh": 0,
      "name": "Object_2"
    },
    {
      "mesh": 1,
      "name": "Object_3"
    },
    {
      "mesh": 2,
      "name": "Object_4"
    },
    {
      "mesh": 3,
      "name": "Object_5"
    },
    {
      "mesh": 4,
      "name": "Object_6"
    },
    {
      "mesh": 5,
      "name": "Object_7"
    },
    {
      "mesh": 6,
      "name": "Object_8"
    },
    {
      "mesh": 7,
      "name": "Object_9"
    },
    {
      "mesh": 8,
      "name": "Object_10"
    },
    {
      "mesh": 9,
      "name": "Object_11"
    }
  ],
  "samplers": [
    {
      "magFilter": 9729,
      "minFilter": 9987,
      "wrapS": 10497,
      "wrapT": 10497
    }
  ],
  "scene": 0,
  "scenes": [
    {
      "name": "Sketchfab_Scene",
      "nodes": [
        0
      ]
    }
  ],
  "textures": [
    {
      "sampler": 0,
      "source": 0
    }
  ]
}
