{
  "accessors": [
    {
      "bufferView": 2,
      "componentType": 5126,
      "count": 6091,
      "max": [
        10.328868865966797,
        11.433839797973633,
        7.359654426574707
      ],
      "min": [
        -7.368624210357666,
        -0.027850236743688583,
        -7.359654426574707
      ],
      "type": "VEC3"
    },
    {
      "bufferView": 2,
      "byteOffset": 73092,
      "componentType": 5126,
      "count": 6091,
      "max": [
        0.9999938011169434,
        1.0,
        0.9999728202819824
      ],
      "min": [
        -0.999981701374054,
        -1.0,
        -0.9999728798866272
      ],
      "type": "VEC3"
    },
    {
      "bufferView": 3,
      "componentType": 5126,
      "count": 6091,
      "max": [
        1.0,
        0.9999319314956665,
        0.9999998807907104,
        1.0
      ],
      "min": [
        -0.9936731457710266,
        -0.9999793767929077,
        -1.0,
        -1.0
      ],
      "type": "VEC4"
    },
    {
      "bufferView": 1,
      "componentType": 5126,
      "count": 6091,
      "max": [
        0.9801020622253418,
        0.9065099954605103
      ],
      "min": [
        0.04127545654773712,
        0.05469842255115509
      ],
      "type": "VEC2"
    },
    {
      "bufferView": 0,
      "componentType": 5125,
      "count": 34368,
      "type": "SCALAR"
    }
  ],
  "asset": {
    "extras": {
      "author": "miranda.j.rice (https://sketchfab.com/miranda.j.rice)",
      "license": "CC-BY-4.0 (http://creativecommons.org/licenses/by/4.0/)",
      "source": "https://sketchfab.com/3d-models/tea-cup-93f3386eb6f34bb8acb5caa3645e9070",
      "title": "Tea Cup"
    },
    "generator": "Sketchfab-14.32.1",
    "version": "2.0"
  },
  "bufferViews": [
    {
      "buffer": 0,
      "byteLength": 137472,
      "name": "floatBufferViews",
      "target": 34963
    },
    {
      "buffer": 0,
      "byteLength": 48728,
      "byteOffset": 137472,
      "byteStride": 8,
      "name": "floatBufferViews",
      "target": 34962
    },
    {
      "buffer": 0,
      "byteLength": 146184,
      "byteOffset": 186200,
      "byteStride": 12,
      "name": "floatBufferViews",
      "target": 34962
    },
    {
      "buffer": 0,
      "byteLength": 97456,
      "byteOffset": 332384,
      "byteStride": 16,
      "name": "floatBufferViews",
      "target": 34962
    }
  ],
  "buffers": [
    {
      "byteLength": 429840,
      "uri": "scene.bin"
    }
  ],
  "images": [
    {
      "uri": "textures/lambert1_baseColor.jpeg"
    },
    {
      "uri": "textures/lambert1_metallicRoughness.png"
    },
    {
      "uri": "textures/lambert1_normal.png"
    }
  ],
  "materials": [
    {
      "doubleSided": true,
      "name": "lambert1",
      "normalTexture": {
        "index": 2
      },
      "pbrMetallicRoughness": {
        "baseColorTexture": {
          "index": 0
        },
        "metallicRoughnessTexture": {
          "index": 1
        }
      }
    }
  ],
  "meshes": [
    {
      "name": "Poly_Cupver7_lambert1_0",
      "primitives": [
        {
          "attributes": {
            "NORMAL": 1,
            "POSITION": 0,
            "TANGENT": 2,
            "TEXCOORD_0": 3
          },
          "indices": 4,
          "material": 0,
          "mode": 4
        }
      ]
    }
  ],
  "nodes": [
    {
      "children": [
        1
      ],
      "matrix": [
        1.0,
        0.0,
        0.0,
        0.0,
        0.0,
        2.220446049250313e-16,
        -1.0,
        0.0,
        0.0,
        1.0,
        2.220446049250313e-16,
        0.0,
        0.0,
        0.0,
        0.0,
        1.0
      ],
      "name": "Sketchfab_model"
    },
    {
      "children": [
        2
      ],
      "matrix": [
        0.009999999776482582,
        0.0,
        0.0,
        0.0,
        0.0,
        0.0,
        0.009999999776482582,
        0.0,
        0.0,
        -0.009999999776482582,
        0.0,
        0.0,
        0.0,
        0.0,
        0.0,
        1.0
      ],
      "name": "1dcdffa561ed40d0bc1150a22eb4f6b9.fbx"
    },
    {
      "children": [
        3
      ],
      "name": "RootNode"
    },
    {
      "children": [
        4
      ],
      "matrix": [
        0.567385196685791,
        0.0,
        0.0,
        0.0,
        0.0,
        0.567385196685791,
        0.0,
        0.0,
        0.0,
        0.0,
        0.567385196685791,
        0.0,
        -0.014634145423769951,
        0.0,
        0.0,
        1.0
      ],
      "name": "Poly_Cupver7"
    },
    {
      "mesh": 0,
      "name": "Poly_Cupver7_lambert1_0"
    }
  ],
  "samplers": [
    {
      "magFilter": 9729,
      "minFilter": 9987,
      "wrapS": 10497,
      "wrapT": 10497
    }
  ],
  "scene": 0,
  "scenes": [
    {
      "name": "Sketchfab_Scene",
      "nodes": [
        0
      ]
    }
  ],
  "textures": [
    {
      "sampler": 0,
      "source": 0
    },
    {
      "sampler": 0,
      "source": 1
    },
    {
      "sampler": 0,
      "source": 2
    }
  ]
}
